<?xml version="1.0" encoding="UTF-8" standalone="no"?>
<!DOCTYPE svg PUBLIC "-//W3C//DTD SVG 20010904//EN" "http://www.w3.org/TR/2001/REC-SVG-20010904/DTD/svg10.dtd">
<svg version="1.0" xmlns="http://www.w3.org/2000/svg" width="1280.000000pt" height="905.000000pt" viewBox="0 0 1280.000000 905.000000" preserveAspectRatio="xMidYMid meet">
<g transform="translate(0.000000,905.000000) scale(0.100000,-0.100000)" fill="#000000" stroke="none">
<path d="M5830 8002 c-19 -9 -41 -30 -49 -46 -32 -68 -67 -31 960 -1041 2538 -2495 2728 -2680 2761 -2692 42 -15 497 -17 550 -3 47 13 68 43 68 96 0 31 -7 51 -25 72 -14 16 -251 250 -527 518 -276 269 -1051 1024 -1722 1678 -671 654 -1230 1195 -1243 1203 -22 15 -703 233 -726 233 -7 0 -28 -8 -47 -18z"/>
<path d="M5687 7807 c-15 -7 -305 -280 -644 -607 -339 -327 -935 -901 -1323 -1275 -388 -375 -907 -876 -1155 -1114 -247 -239 -455 -443 -462 -455 -26 -45 -5 -113 42 -134 18 -8 110 -12 308 -12 251 0 285 2 308 18 14 9 489 472 1055 1027 566 556 1290 1266 1609 1578 319 312 590 581 603 598 25 37 28 78 8 117 -21 39 -237 249 -270 261 -34 14 -44 13 -79 -2z"/>
<path d="M3720 7433 c-19 -10 -41 -31 -49 -47 -18 -37 -37 -1163 -20 -1213 14 -43 44 -63 95 -63 51 0 38 -10 374 296 136 123 250 235 254 247 3 12 6 181 6 374 l0 353 -29 32 -29 33 -284 3 c-255 2 -286 1 -318 -15z"/>
<path d="M6845 6086 c-272 -62 -496 -277 -566 -543 -30 -112 -30 -271 0 -378 55 -198 183 -367 349 -460 20 -11 37 -27 37 -34 0 -8 -28 -23 -65 -35 -117 -40 -190 -85 -280 -176 -123 -123 -197 -275 -243 -499 l-16 -74 54 -107 c192 -383 344 -880 419 -1370 34 -223 48 -391 44 -535 -3 -116 -4 -120 -25 -123 l-23 -3 0 -439 c0 -424 -1 -440 -19 -450 -27 -14 -665 -14 -692 0 -18 10 -19 26 -19 488 0 359 3 481 12 490 9 9 99 12 345 12 260 0 333 3 333 13 0 6 -5 77 -10 157 -48 698 -285 1490 -578 1930 -44 67 -110 150 -159 198 -46 46 -83 87 -83 90 0 4 37 26 83 49 147 74 247 172 321 313 95 182 110 386 41 583 -67 195 -237 365 -434 437 -255 93 -543 36 -741 -147 -380 -352 -289 -968 178 -1191 39 -19 72 -38 72 -42 0 -5 -38 -46 -84 -93 -185 -187 -349 -496 -491 -922 -137 -411 -227 -867 -242 -1222 l-6 -153 326 0 c179 0 332 -3 341 -6 14 -5 16 -58 16 -489 0 -419 -2 -484 -15 -495 -12 -10 -94 -12 -368 -8 -195 3 -359 8 -365 12 -9 5 -12 88 -12 301 l0 294 55 73 c47 63 125 194 125 212 0 3 -44 7 -97 8 l-98 3 -3 110 c-9 314 78 835 213 1279 l36 119 -28 39 c-54 79 -159 153 -265 187 -48 16 -48 31 -1 56 21 11 67 49 103 85 212 211 211 548 -1 761 -204 205 -532 213 -743 19 -74 -69 -130 -154 -157 -239 -28 -90 -28 -232 0 -322 36 -115 127 -232 233 -301 27 -16 46 -33 43 -38 -2 -4 -31 -17 -64 -29 -215 -78 -339 -268 -382 -581 -18 -133 -15 -427 6 -585 18 -141 68 -349 110 -460 40 -106 119 -252 175 -325 l49 -65 1 -301 c0 -234 -3 -303 -13 -307 -7 -2 -254 -2 -550 1 -461 4 -539 7 -549 20 -9 10 -15 73 -18 201 l-5 186 -215 0 -215 0 -3 -414 c-2 -325 0 -416 10 -423 7 -4 1924 -8 4260 -8 4189 0 4247 0 4258 19 11 21 15 787 4 815 -5 14 -34 16 -219 16 -212 0 -213 0 -219 -23 -3 -12 -6 -96 -6 -187 0 -91 -5 -172 -10 -180 -6 -10 -36 -17 -92 -22 -139 -11 -1427 -9 -1449 2 -18 10 -19 23 -19 190 0 98 3 185 6 194 5 14 34 16 220 16 l214 0 0 63 c0 91 -27 303 -56 444 -88 428 -254 799 -423 944 -28 24 -51 49 -51 54 0 6 25 23 55 38 68 36 139 111 173 185 24 50 27 69 27 162 0 93 -3 111 -27 163 -15 31 -50 81 -77 110 -211 223 -581 130 -666 -167 -51 -175 40 -379 203 -459 23 -12 42 -25 42 -30 0 -5 -29 -37 -64 -70 -178 -173 -339 -555 -420 -998 -27 -146 -52 -398 -43 -423 5 -13 38 -16 219 -18 l213 -3 3 -189 c2 -130 -1 -193 -9 -202 -9 -11 -65 -14 -289 -14 -153 0 -285 3 -294 6 -14 5 -16 59 -16 500 l0 494 63 83 c117 153 215 350 287 574 38 118 80 292 80 330 0 16 -16 58 -34 95 -46 90 -63 188 -49 283 12 84 57 189 108 251 32 39 35 48 35 106 0 95 -19 270 -41 379 -73 367 -238 585 -513 680 -44 16 -81 33 -81 38 0 5 34 32 75 59 227 149 352 396 337 667 -17 317 -223 578 -532 675 -89 28 -281 36 -370 16z"/>
</g>
</svg>